<?xml version="1.0" standalone="no"?><!DOCTYPE svg PUBLIC "-//W3C//DTD SVG 1.1//EN" "http://www.w3.org/Graphics/SVG/1.1/DTD/svg11.dtd"><svg t="1644733895525" class="icon" viewBox="0 0 1024 1024" version="1.1" xmlns="http://www.w3.org/2000/svg" p-id="2257" xmlns:xlink="http://www.w3.org/1999/xlink" width="48" height="48"><defs><style type="text/css"></style></defs><path d="M667.9 580.4c-6.7-5.8-18.4-6.3-25.1-0.4-35.9 30.9-81.6 48.9-130.9 48.9-48.9 0-95-17.9-130.9-49.3-6.7-5.8-17-5.8-24.2 0-51.6 44.8-123.7 61.9-195.9 38.1-3.1-0.9-7.6-2.2-7.6-3.1v224.1c0 52 39.9 84.3 91.9 84.3h533.9c52 0 95.5-32.3 95.5-84.3V614.4c-76.2 29.6-153.3 13-206.7-34zM381.9 874c0 10.8-9.4 19.3-20.2 19.3-10.8 0-20.2-8.5-20.2-19.3V645.4c0-10.8 9.4-19.3 20.2-19.3 10.8 0 20.2 8.5 20.2 19.3V874z" fill="#ffffff" p-id="2258"></path><path d="M954.9 391.2l-1.8-5.4-118.4-241.6c-13-26-39.5-43-68.6-43H255.5c-29.1 0-56 16.6-68.6 43L70.4 386.3c-0.4 1.3-1.3 3.6-1.8 4.9-3.6 13.4-4.9 24.7-4.9 37.7 0 73.1 47.1 137.2 117.5 156.5 69.9 18.8 135.4-8.1 173-57.4 7.2-9.4 22-9.4 29.6 0 29.6 38.6 76.2 63.2 128.2 63.2 52 0 98.6-24.7 128.2-63.2 7.6-9.4 22-9.9 29.6 0 35.4 46.2 95 73.1 159.6 61 73.1-13.9 134-91.5 130.9-165.9-1-10.8-2.8-21.2-5.4-31.9z" fill="#ffffff" p-id="2259"></path></svg>