<?xml version="1.0" standalone="no"?><!DOCTYPE svg PUBLIC "-//W3C//DTD SVG 1.1//EN" "http://www.w3.org/Graphics/SVG/1.1/DTD/svg11.dtd"><svg t="1650462488308" class="icon" viewBox="0 0 1024 1024" version="1.1" xmlns="http://www.w3.org/2000/svg" p-id="2863" xmlns:xlink="http://www.w3.org/1999/xlink" width="128" height="128"><defs><style type="text/css">@font-face { font-family: feedback-iconfont; src: url("//at.alicdn.com/t/font_1031158_u69w8yhxdu.woff2?t=1630033759944") format("woff2"), url("//at.alicdn.com/t/font_1031158_u69w8yhxdu.woff?t=1630033759944") format("woff"), url("//at.alicdn.com/t/font_1031158_u69w8yhxdu.ttf?t=1630033759944") format("truetype"); }
</style></defs><path d="M171.177 539.707c0-95.926-0.015-191.857 0.007-287.783 0.011-41.477 27.147-73.942 68.169-79.862 13.555-1.955 27.649-1.412 41.397-0.477 13.063 0.889 22.562 13.61 21.943 26.925-0.634 13.632-11.312 24.602-24.798 25.057-8.727 0.294-17.473 0.021-26.211 0.091-16.897 0.131-27.911 11.214-27.915 28.228-0.018 191.857-0.018 383.713 0 575.57 0 17.244 11.087 28.396 28.345 28.399 174.198 0.029 348.4 0.029 522.598 0.003 17.786-0.003 28.588-11.075 28.603-29.291 0.047-52.786 0.018-105.571 0.018-158.357 0-137.975-0.007-275.954 0.026-413.929 0-7.252-0.881-14.178-5.483-20.112-5.232-6.747-12.182-10.286-20.688-10.449-8.735-0.171-17.473 0-26.211-0.077-14.931-0.134-26.634-11.505-26.833-25.982-0.196-14.436 11.399-26.604 26.233-26.429 15.047 0.178 30.481-0.572 45.049 2.443 34.636 7.172 59.227 38.314 60.475 73.644 0.069 1.999 0.080 4.005 0.080 6.007 0.003 190.946 0.036 381.893-0.029 572.839-0.011 34.559-15.444 59.897-46.592 75.21-10.256 5.042-21.343 7.092-32.783 7.092-175.294 0-350.585 0.033-525.875-0.026-44.634-0.015-79.477-35.037-79.506-79.844-0.065-96.305-0.015-192.599-0.018-288.89z" p-id="2864"></path><path d="M513.685 276.271c-34.221 0-68.442 0.021-102.662-0.007-33.317-0.029-55.386-22.1-55.44-55.422-0.026-16.020-0.059-32.036 0.007-48.057 0.131-31.894 22.5-54.333 54.286-54.351 69.17-0.044 138.339-0.047 207.509 0.003 31.413 0.026 54.049 22.686 54.114 54.023 0.036 16.927 0.073 33.857-0.011 50.783-0.146 29.535-22.37 52.553-51.868 52.884-35.31 0.397-70.622 0.095-105.935 0.095 0 0.015 0 0.029 0 0.047zM618.642 171.478c-70.302 0-140.207 0-210.035 0 0 17.571 0 34.738 0 51.875 70.189 0 139.97 0 210.035 0 0-17.312 0-34.337 0-51.875z" p-id="2865"></path><path d="M513.059 592.464c-51.493 0-102.987-0.021-154.479 0.021-7.507 0.007-14.494-1.365-20.247-6.543-8.225-7.406-10.988-16.675-7.981-27.19 3.019-10.555 10.366-16.814 21.284-18.612 1.963-0.324 3.98-0.448 5.971-0.448 103.897-0.021 207.793-0.036 311.69 0 17.724 0.007 29.476 11.953 28.417 28.61-0.721 11.371-9.678 21.514-20.946 23.447-3.204 0.549-6.513 0.688-9.776 0.692-51.311 0.033-102.622 0.021-153.933 0.021z" p-id="2866"></path><path d="M513.151 723.984c-52.403 0-104.806 0.011-157.214-0.011-11.057-0.003-19.337-4.97-24.066-14.892-4.613-9.674-3.529-19.187 3.099-27.7 5.371-6.903 12.707-9.977 21.445-9.962 24.383 0.044 48.766 0.011 73.149 0.011 80.063 0 160.123-0.015 240.186 0.015 16.425 0.007 27.991 10.923 28.038 26.261 0.044 14.473-11.206 26.106-25.785 26.225-19.831 0.167-39.667 0.047-59.5 0.047-33.121 0.003-66.235 0.003-99.353 0.003z" p-id="2867"></path><path d="M461.063 408.103c34.934 0 69.872-0.113 104.806 0.047 17.706 0.084 29.805 15.543 25.854 32.51-2.746 11.786-13.162 19.949-26.006 20.006-23.291 0.106-46.581 0.036-69.872 0.033-46.581 0-93.163 0.080-139.745-0.047-19.071-0.051-31.734-18.030-25.286-35.447 3.892-10.511 13.427-17.054 25.439-17.079 34.938-0.065 69.876-0.021 104.811-0.021z" p-id="2868"></path></svg>