<?xml version="1.0" standalone="no"?><!DOCTYPE svg PUBLIC "-//W3C//DTD SVG 1.1//EN" "http://www.w3.org/Graphics/SVG/1.1/DTD/svg11.dtd"><svg t="1650897498698" class="icon" viewBox="0 0 1024 1024" version="1.1" xmlns="http://www.w3.org/2000/svg" p-id="3141" xmlns:xlink="http://www.w3.org/1999/xlink" width="128" height="128"><defs><style type="text/css">@font-face { font-family: feedback-iconfont; src: url("//at.alicdn.com/t/font_1031158_u69w8yhxdu.woff2?t=1630033759944") format("woff2"), url("//at.alicdn.com/t/font_1031158_u69w8yhxdu.woff?t=1630033759944") format("woff"), url("//at.alicdn.com/t/font_1031158_u69w8yhxdu.ttf?t=1630033759944") format("truetype"); }
</style></defs><path d="M832.16 223.95h-96.83v-95.96c0-17.67-14.33-32-32-32H320.06c-17.63 0-31.93 14.25-32 31.88l-0.37 96.08h-95.66c-17.67 0-32 14.33-32 32v672.34c0 17.67 14.33 32 32 32h384.08c17.67 0 32-14.33 32-32s-14.33-32-32-32H224.04V287.95h63.42l-0.12 31.26a32.027 32.027 0 0 0 9.29 22.67 31.974 31.974 0 0 0 22.6 9.45l92.19 0.32 277.05 0.96 14.76 0.05h0.11c8.47 0 16.59-3.36 22.59-9.33 6.03-6 9.41-14.16 9.41-22.67v-32.71h64.83v352.01c0 17.67 14.33 32 32 32s32-14.33 32-32V255.95c-0.01-17.67-14.34-32-32.01-32z m-160.83 64.61l-319.88-1.11 0.49-127.45h319.39v128.56z" p-id="3142"></path><path d="M723.55 422.78a31.818 31.818 0 0 0-19.41-6.57H319.33c-17.67 0-32 14.33-32 32s14.33 32 32 32H704.13c17.67 0 32-14.33 32-32 0-0.09-0.01-0.18-0.01-0.28-0.08-10.26-4.99-19.36-12.57-25.15zM287.33 576.05c0 17.67 14.33 32 32 32h384.81c17.67 0 32-14.33 32-32s-14.33-32-32-32H319.33c-17.67 0-32 14.32-32 32zM771.08 787.86c14.37-9.3 23.88-25.46 23.88-43.85 0-28.83-23.37-52.21-52.21-52.21-28.83 0-52.21 23.37-52.21 52.21 0 18.39 9.52 34.54 23.88 43.85-33.41 14.52-57.38 54-57.38 100.44 0 58.76 171.41 58.76 171.41 0 0.01-46.43-23.96-85.92-57.37-100.44zM361.64 853.65c44.05 0 79.88-35.83 79.88-79.88s-35.83-79.88-79.88-79.88-79.88 35.83-79.88 79.88 35.83 79.88 79.88 79.88z m0-139.77c33.02 0 59.88 26.86 59.88 59.88s-26.86 59.88-59.88 59.88-59.88-26.86-59.88-59.88 26.86-59.88 59.88-59.88z" p-id="3143"></path><path d="M344.66 749.75c-2.54-3.78-5.87-8.17-9.99-13.15l-7.76 5.1c2.97 3.98 6.06 8.53 9.27 13.65l8.48-5.6z" p-id="3144"></path><path d="M370.06 797.39c-9.39 0-15.51-0.17-18.36-0.5 3.07-1.44 9.15-3.23 18.25-5.39 0-1.65 0.06-3.99 0.18-7.01l16.71 12.32 6.39-6.61c-2.85-2.08-5.94-4.25-9.27-6.5 3.47-1.96 7.04-4.11 10.71-6.43l-5.68-6.58v-31.22h-40.52v44.12c-0.05 2.92-0.74 5.15-2.08 6.68l3.74 6.32c-3.76-0.79-6.63-2.44-8.62-4.96v-29.82h-15.74v9.48h6.75v19.36c-2.71 2.28-5.1 4.37-7.19 6.29l4.1 10.99 7.83-8.91c2.28 2.51 4.78 4.28 7.53 5.3 2.74 1.02 5.21 1.55 7.42 1.6l15.38 0.29 25.65 0.29c0.86-2.59 2.04-5.72 3.52-9.41-10.74 0.2-19.64 0.3-26.7 0.3z m6.97-18.4l-8.19-5.32h15.7c-2.45 1.83-4.95 3.6-7.51 5.32z m-19.37-31.03h22.13v4.81h-22.13v-4.81z m0 12.42h22.13v4.81h-22.13v-4.81z m0 13.3h10.63l-5.53 5.53 5.57 3.99c-3.93 0.98-7.48 1.9-10.67 2.77v-12.29z" p-id="3145"></path></svg>