<?xml version="1.0" standalone="no"?><!DOCTYPE svg PUBLIC "-//W3C//DTD SVG 1.1//EN" "http://www.w3.org/Graphics/SVG/1.1/DTD/svg11.dtd"><svg t="1650897457242" class="icon" viewBox="0 0 1024 1024" version="1.1" xmlns="http://www.w3.org/2000/svg" p-id="1533" xmlns:xlink="http://www.w3.org/1999/xlink" width="128" height="128"><defs><style type="text/css">@font-face { font-family: feedback-iconfont; src: url("//at.alicdn.com/t/font_1031158_u69w8yhxdu.woff2?t=1630033759944") format("woff2"), url("//at.alicdn.com/t/font_1031158_u69w8yhxdu.woff?t=1630033759944") format("woff"), url("//at.alicdn.com/t/font_1031158_u69w8yhxdu.ttf?t=1630033759944") format("truetype"); }
</style></defs><path d="M827 869.6H196.7c-44-0.1-79.6-35.7-79.6-79.6V438.6h789.5V790c0 43.9-35.7 79.6-79.6 79.6zM196.7 223.4h87.7v53.5c0 11 8.9 19.9 19.9 19.9 11 0 19.9-8.9 19.9-19.9v-53.5h367.5v53.5c0 11 8.9 19.9 19.9 19.9 11 0 19.9-8.9 19.9-19.9v-53.5H827c44 0.1 79.6 35.7 79.6 79.6v95.8H117.1V303c0-44 35.6-79.6 79.6-79.6zM827 170.3h-95.5v-50.6c0-11-8.9-19.9-19.9-19.9-11 0-19.9 8.9-19.9 19.9v50.6H324.2v-50.6c0-11-8.9-19.9-19.9-19.9-11 0-19.9 8.9-19.9 19.9v50.6h-87.7C123.4 170.4 64.1 229.7 64 303v487c0.1 73.3 59.4 132.6 132.7 132.7H827c73.3-0.1 132.6-59.4 132.7-132.7V303c-0.1-73.3-59.5-132.6-132.7-132.7z" p-id="1534"></path><path d="M657.6 529.4l-183.1 183-99.1-99.1c-9.2-9.2-24.2-9.2-33.4 0s-9.2 24.2 0 33.4l115.9 115.9c9.2 9.2 24.2 9.2 33.4 0L691 562.9c9.2-9.2 9.2-24.2 0-33.4-9.2-9.3-24.2-9.3-33.4-0.1z" p-id="1535"></path></svg>